<?xml version="1.0" standalone="no"?>
<!DOCTYPE svg PUBLIC "-//W3C//DTD SVG 20010904//EN"
 "http://www.w3.org/TR/2001/REC-SVG-20010904/DTD/svg10.dtd">
<svg version="1.0" xmlns="http://www.w3.org/2000/svg"
 width="128.000000pt" height="128.000000pt" viewBox="0 0 128.000000 128.000000"
 preserveAspectRatio="xMidYMid meet">

<g transform="translate(0.000000,128.000000) scale(0.100000,-0.100000)"
fill="#000000" stroke="none">
<path d="M628 1252 l-308 -2 0 -45 0 -45 325 0 325 0 0 40 c0 28 -5 42 -17 47
-10 4 -156 7 -325 5z m-210 -44 c-2 -15 -11 -24 -25 -26 -19 -3 -23 1 -23 22
0 21 5 26 26 26 21 0 25 -4 22 -22z m122 -4 c0 -21 -4 -25 -22 -22 -15 2 -24
11 -26 26 -3 18 1 22 22 22 21 0 26 -5 26 -26z m125 1 c0 -22 -31 -33 -47 -17
-17 17 -1 44 24 40 15 -2 23 -10 23 -23z m123 3 c-2 -15 -11 -24 -25 -26 -19
-3 -23 1 -23 22 0 21 5 26 26 26 21 0 25 -4 22 -22z m122 -4 c0 -21 -4 -25
-22 -22 -15 2 -24 11 -26 26 -3 18 1 22 22 22 21 0 26 -5 26 -26z"/>
<path d="M374 1117 c-2 -7 -3 -85 -2 -172 l3 -160 265 0 265 0 3 173 2 172
-265 0 c-208 0 -267 -3 -271 -13z m278 -108 c37 -23 68 -45 68 -50 0 -15 -138
-102 -149 -94 -12 7 -16 167 -4 178 10 11 12 10 85 -34z"/>
<path d="M72 908 c-9 -9 -12 -101 -12 -353 0 -319 1 -343 18 -358 17 -15 71
-17 565 -17 483 0 547 2 561 16 14 13 16 60 16 358 0 253 -3 345 -12 354 -8 8
-50 12 -125 12 l-113 0 0 -25 c0 -25 1 -25 80 -25 l80 0 -2 -267 -3 -268 -513
-3 -512 -2 2 267 3 268 103 3 c101 3 102 3 102 27 l0 25 -113 0 c-75 0 -117
-4 -125 -12z m586 -671 c2 -12 -3 -17 -17 -17 -12 0 -21 6 -21 13 0 31 32 34
38 4z"/>
<path d="M318 718 c-3 -24 -2 -46 2 -51 3 -4 150 -6 326 -5 l319 3 3 48 3 47
-324 0 -325 0 -4 -42z m100 -10 c-2 -15 -11 -24 -25 -26 -19 -3 -23 1 -23 22
0 21 5 26 26 26 21 0 25 -4 22 -22z m122 -3 c0 -20 -5 -25 -25 -25 -20 0 -25
5 -25 25 0 20 5 25 25 25 20 0 25 -5 25 -25z m125 0 c0 -22 -31 -33 -47 -17
-17 17 -1 44 24 40 15 -2 23 -10 23 -23z m125 0 c0 -20 -5 -25 -25 -25 -20 0
-25 5 -25 25 0 20 5 25 25 25 20 0 25 -5 25 -25z m120 -1 c0 -21 -4 -25 -22
-22 -15 2 -24 11 -26 26 -3 18 1 22 22 22 21 0 26 -5 26 -26z"/>
<path d="M397 623 c-2 -5 -1 -66 4 -138 4 -71 5 -133 3 -137 -3 -4 2 -8 10 -8
14 0 16 18 16 118 0 64 4 123 9 131 5 8 7 20 4 28 -5 14 -39 18 -46 6z"/>
<path d="M303 83 c-7 -2 -13 -18 -13 -34 l0 -29 351 0 350 0 -3 33 -3 32 -335
2 c-184 1 -341 -1 -347 -4z"/>
</g>
</svg>
